HIERARCHY
ROOT Hips
{
    OFFSET 0.0 0.0 0.0
    CHANNELS 6 Xposition Yposition Zposition Zrotation Xrotation Yrotation
    JOINT LeftHipJoint
    {
        OFFSET 0.1 0.0 0.0
        CHANNELS 3 Zrotation Xrotation Yrotation
        JOINT LeftUpLeg
        {
            OFFSET 125.44294719390592 0.0 0.0
            CHANNELS 3 Zrotation Xrotation Yrotation
            JOINT LeftLeg
            {
                OFFSET 0.0 0.0 -416.88568286723705
                CHANNELS 3 Zrotation Xrotation Yrotation
                JOINT LeftFoot
                {
                    OFFSET 0.0 0.0 -405.1481319459299
                    CHANNELS 3 Zrotation Xrotation Yrotation
                    End Site
                    {
                        OFFSET 0.0 -0.1 0.0
                    }
                }
            }
        }
    }
    JOINT LowerBack
    {
        OFFSET 0.0 0.0 0.1
        CHANNELS 3 Zrotation Xrotation Yrotation
        JOINT Spine
        {
            OFFSET 0.0 0.0 217.9781841738893
            CHANNELS 3 Zrotation Xrotation Yrotation
            JOINT Spine1
            {
                OFFSET 0.0 0.0 249.66920277985753
                CHANNELS 3 Zrotation Xrotation Yrotation
                JOINT LeftShoulder
                {
                    OFFSET 0.1 0.0 0.0
                    CHANNELS 3 Zrotation Xrotation Yrotation
                    JOINT LeftArm
                    {
                        OFFSET 146.0978339391769 0.0 0.0
                        CHANNELS 3 Zrotation Xrotation Yrotation
                        JOINT LeftForeArm
                        {
                            OFFSET 270.5747938658719 0.0 0.0
                            CHANNELS 3 Zrotation Xrotation Yrotation
                            JOINT LeftHand
                            {
                                OFFSET 238.3165948195429 0.0 0.0
                                CHANNELS 3 Zrotation Xrotation Yrotation
                                End Site
                                {
                                    OFFSET 0.1 0.0 0.0
                                }
                            }
                        }
                    }
                }
                JOINT Neck
                {
                    OFFSET 0.0 0.0 0.1
                    CHANNELS 3 Zrotation Xrotation Yrotation
                    JOINT Neck1
                    {
                        OFFSET 0.0 0.0 107.42981385663943
                        CHANNELS 3 Zrotation Xrotation Yrotation
                        End Site
                        {
                            OFFSET 0.0 0.0 103.22859909639239
                        }
                    }
                }
                JOINT RightShoulder
                {
                    OFFSET -0.1 0.0 0.0
                    CHANNELS 3 Zrotation Xrotation Yrotation
                    JOINT RightArm
                    {
                        OFFSET -146.0978339391769 0.0 0.0
                        CHANNELS 3 Zrotation Xrotation Yrotation
                        JOINT RightForeArm
                        {
                            OFFSET -270.5747938658719 0.0 0.0
                            CHANNELS 3 Zrotation Xrotation Yrotation
                            JOINT RightHand
                            {
                                OFFSET -238.3165948195429 0.0 0.0
                                CHANNELS 3 Zrotation Xrotation Yrotation
                                End Site
                                {
                                    OFFSET -0.1 0.0 0.0
                                }
                            }
                        }
                    }
                }
            }
        }
    }
    JOINT RightHipJoint
    {
        OFFSET -0.1 0.0 0.0
        CHANNELS 3 Zrotation Xrotation Yrotation
        JOINT RightUpLeg
        {
            OFFSET -125.44294719390592 0.0 0.0
            CHANNELS 3 Zrotation Xrotation Yrotation
            JOINT RightLeg
            {
                OFFSET 0.0 0.0 -416.88568286723705
                CHANNELS 3 Zrotation Xrotation Yrotation
                JOINT RightFoot
                {
                    OFFSET 0.0 0.0 -405.1481319459299
                    CHANNELS 3 Zrotation Xrotation Yrotation
                    End Site
                    {
                        OFFSET 0.0 -0.1 0.0
                    }
                }
            }
        }
    }
}
MOTION
Frames: 10
Frame Time: 0.03333333333333333
0.0 0.0 829.6574285994868 25.693363316675896 13.129581479424349 0.9854242091860792 -6.896728590703373e-34 -9.93923337957349e-17 -7.951386703658792e-16 -0.32949879070580873 -25.236558024908803 3.759996226602686 1.5851753295136557 19.232449604188695 -1.6914045772067288 3.103527865816518e-33 5.963540027744094e-16 -5.963540027744094e-16 -6.896728590703373e-34 -9.93923337957349e-17 -7.951386703658792e-16 0.05509694385335686 4.485849010450584 4.136676433585793 -0.8316572560959624 -2.8117657072983363e-15 3.955391089722225e-15 0.0 0.0 -7.951386703658792e-16 -64.63285370447724 50.59390759567436 90.89561218483033 -85.75808499223982 1.6648167460528778e-15 -1.581539083445456e-14 0.0 0.0 2.782985346280577e-15 0.0 0.0 -7.951386703658792e-16 -6.640318477261642 -10.080055922573516 -5.08428677947182 0.0 0.0 -7.951386703658792e-16 54.57912624974452 40.812345157059646 -86.17432878264668 83.67589995260354 -7.108867536513308e-15 6.364538874445079e-15 -3.1805546814635176e-15 0.0 0.0 -6.896728590703373e-34 -9.93923337957349e-17 -7.951386703658792e-16 -0.36035493078508907 -27.058116840545377 1.3004570144614838 1.0994453486548872 27.714647489191446 -1.9286110919965176 0.0 0.0 3.975693351829396e-16
0.0 0.0 829.6574285994868 25.709775419290526 13.102635282889498 1.0147636300596319 0.0 0.0 3.975693351829396e-16 -0.2997203765454033 -25.271940475254297 3.745293422028779 1.5608271571203924 19.296726816428585 -1.7041019589895297 0.0 0.0 -1.987846675914698e-16 0.0 0.0 3.975693351829396e-16 0.04986208250486221 4.467187400901121 4.14068667135041 -0.7894891296350114 3.8934269265534637e-16 1.1954187678190144e-15 0.0 0.0 7.951386703658792e-16 -64.69166728988328 50.6800978324648 90.86413782208955 -85.74575511670423 -6.491900366714198e-15 6.992752130933247e-15 3.1805546814635168e-15 -1.1034765745125397e-32 -3.975693351829396e-16 0.0 0.0 7.951386703658792e-16 -6.833641803844621 -10.071355738044335 -5.089943434542911 0.0 0.0 7.951386703658792e-16 54.00031393515736 40.707175320972006 -85.52374797607007 84.17899422220663 6.6240773588177206e-15 2.5886752506438345e-15 0.0 0.0 0.0 0.0 0.0 3.975693351829396e-16 -0.32664906228167967 -26.983786180425593 1.2960094460302118 1.0543070295948684 27.609527724063835 -1.9294101634282685 0.0 0.0 -7.951386703658791e-16
0.0 0.0 829.6574285994868 25.712025962942 13.0471069443191 1.0085359248912988 0.0 0.0 0.0 -0.2720497822735096 -25.21793313631241 3.848910845737397 1.5783330533879896 19.3347755248252 -1.825968319928659 3.1805546814635164e-15 5.517382872562698e-33 1.9878466759146977e-16 0.0 0.0 0.0 0.045023065139010006 4.430323189476866 4.184296381995453 -0.7483592599649603 -3.8717535993488916e-16 -1.5928398027993793e-15 0.0 0.0 0.0 -64.79180444168429 50.75115656890174 90.89814204955137 -85.74944285828909 -1.3651474544233025e-14 -3.994471730247642e-15 0.0 0.0 1.5902773407317584e-15 0.0 0.0 0.0 -6.98489803492881 -10.083371886397185 -5.118941502464307 0.0 0.0 0.0 53.3263149713075 40.655347465779606 -84.79373314631405 84.79800706844333 -8.578459070390429e-15 -9.394939557341926e-15 0.0 0.0 0.0 0.0 0.0 0.0 -0.2974896356153345 -26.975308796879514 1.328943560973037 1.0392240185903856 27.63799268952506 -1.9210065838782295 0.0 0.0 0.0
0.0 0.0 829.6574285994868 25.716981820213462 12.967814818868717 1.0140477256582476 3.1805546814635168e-15 -9.93923337957349e-17 2.758691436281349e-33 -0.23646053685380936 -25.18062822114819 3.942414631299528 1.6021822741544796 19.56096840016395 -2.017310815046597 0.0 0.0 3.975693351829396e-16 3.1805546814635168e-15 -9.93923337957349e-17 2.758691436281349e-33 0.038554413633765244 4.353369008478014 4.1957172720009694 -0.6452839287674806 -1.5656256951329218e-15 -4.382148415195312e-15 0.0 0.0 -7.951386703658792e-16 -65.01336857303002 50.917683366418125 91.04785083573448 -85.96431894711466 -1.5837706562652167e-16 -4.495194419448676e-15 7.724336021587778e-32 -6.3611093629270335e-15 1.3914926731402886e-15 0.0 0.0 -7.951386703658792e-16 -7.176948975273666 -10.125812166750038 -5.088695789022118 0.0 0.0 -7.951386703658792e-16 52.833869732160636 40.693835334280486 -84.08329174158223 85.48820039947985 1.981669573782978e-15 6.8302727697538004e-15 -3.1805546814635168e-15 0.0 0.0 3.1805546814635168e-15 -9.93923337957349e-17 2.758691436281349e-33 -0.2592142452713483 -26.94826151273877 1.2835383302551664 0.9782696987007843 27.803697540795227 -1.841036724389841 3.4483642953516864e-34 -9.93923337957349e-17 3.975693351829396e-16
0.0 0.0 829.6574285994868 25.738752158358153 12.84891652392972 1.0535096643780144 -5.172546443027529e-33 1.4908850069360234e-15 3.975693351829396e-16 -0.20549208404280106 -25.174048034707962 3.948310668091044 1.6043308955769526 19.858069513417668 -2.0995779502803984 3.4483642953516864e-34 -1.987846675914698e-16 1.987846675914698e-16 -5.172546443027529e-33 1.4908850069360234e-15 3.975693351829396e-16 0.03322699052765965 4.3108904560213865 4.229553783603934 -0.546511039019902 -7.951296275293985e-16 -3.792167741338056e-18 0.0 0.0 3.975693351829396e-16 -65.16461529512712 51.05570131027129 91.17433079546802 -86.11688347570917 -1.0705130782137821e-14 1.6114884857272994e-14 0.0 0.0 1.1927080055488188e-15 0.0 0.0 3.975693351829396e-16 -7.413358225645303 -9.993158812661324 -5.0883262443973285 0.0 0.0 3.975693351829396e-16 52.301384513764766 40.64973486670089 -83.51546191334322 85.9828199132889 -4.337568622867983e-15 -4.652871239248849e-15 0.0 0.0 0.0 -5.172546443027529e-33 1.4908850069360234e-15 3.975693351829396e-16 -0.22505472310494096 -26.864799166459193 1.2022211120346835 0.8996849676975439 27.89381868374927 -1.7562577993208213 0.0 0.0 3.975693351829396e-16
0.0 0.0 829.6574285994868 25.79219462750533 12.740595249926615 1.0586080128299786 5.517382872562698e-33 1.5902773407317584e-15 -3.975693351829396e-16 -0.1848991483462548 -25.090665309858124 3.9413587657405498 1.592545864582239 19.948246551241166 -2.077825626968713 0.0 0.0 0.0 5.517382872562698e-33 1.5902773407317584e-15 -3.975693351829396e-16 0.029268971360120927 4.200440890258045 4.269631354188842 -0.46739761485532555 -6.753757656861279e-15 -1.2202653986626877e-15 0.0 0.0 -3.975693351829396e-16 -65.413380804134 51.19913145647299 91.29327359512575 -86.31125717081432 -6.9606299964775125e-15 -6.526329963168651e-15 -3.1805546814635168e-15 8.276074308844047e-32 -2.9817700138720468e-15 0.0 0.0 -3.975693351829396e-16 -7.662190749439691 -9.910073390132258 -5.1436018931387855 0.0 0.0 -3.975693351829396e-16 51.50037737190141 40.60433936407277 -82.67154909108837 86.8977260798135 1.5432782326596992e-14 1.1666986272629138e-14 0.0 0.0 0.0 5.517382872562698e-33 1.5902773407317584e-15 -3.975693351829396e-16 -0.20276956567319557 -26.761744619677728 1.2203789116328265 0.8868585507202222 27.970894740562535 -1.7954589968738062 0.0 0.0 3.975693351829396e-16
0.0 0.0 829.6574285994868 25.786587397437078 12.522314300628166 1.0442898346325906 0.0 0.0 -3.975693351829396e-16 -0.13715066924240032 -24.867330922904983 3.956370616396918 1.5539028064783924 19.900632015812153 -1.9796492831719146 0.0 0.0 -1.987846675914698e-16 0.0 0.0 -3.975693351829396e-16 0.02164849427124523 4.1326553475192975 4.32410675584933 -0.3640812699727597 1.5978482652521661e-15 -2.3803513370249534e-15 0.0 0.0 -7.951386703658792e-16 -65.72495078545738 51.402183510214215 91.39019453103082 -86.57573211858595 2.180792518944186e-15 -2.3151829454919034e-15 0.0 0.0 -7.951386703658792e-16 0.0 0.0 -7.951386703658792e-16 -7.8837893992932875 -9.906528025504679 -5.179437859332961 0.0 0.0 -7.951386703658792e-16 50.548524557573046 40.596254444816054 -81.57640076267187 87.81850468779776 8.823089933219753e-15 9.16558417880651e-15 3.1805546814635168e-15 -8.827812596100317e-32 -3.1805546814635168e-15 0.0 0.0 -3.975693351829396e-16 -0.15110158593279127 -26.486774590689684 1.2532989950764755 0.8407810417849169 27.85138569358536 -1.7660043501751923 -3.4483642953516864e-34 -9.93923337957349e-17 -3.975693351829396e-16
0.0 0.0 829.6574285994868 25.800078721782132 12.43922233392552 0.9647990967578718 0.0 0.0 0.0 -0.08398170906113703 -24.819752502060545 4.06646302190491 1.5521420635332854 19.948865328491728 -1.959386273629495 0.0 0.0 -5.963540027744094e-16 0.0 0.0 0.0 0.013089025094955417 4.041854484229507 4.451462892907408 -0.250826909020082 1.5928842209565027e-15 -1.189224228466991e-15 0.0 0.0 -3.975693351829396e-16 -65.99520930447237 51.616117946346264 91.4233495913919 -86.98429412065225 -6.6854591779722785e-15 2.4257526643422876e-15 0.0 0.0 1.1927080055488188e-15 0.0 0.0 -3.975693351829396e-16 -8.069062303961347 -9.862228309315086 -5.146860718371791 0.0 0.0 -3.975693351829396e-16 49.510390901596516 40.44299966133172 -80.36824758132765 88.92032210407056 4.3706462390112465e-15 1.3535730977269259e-14 3.1805546814635168e-15 0.0 0.0 0.0 0.0 0.0 -0.09372674992298667 -26.40134911451555 1.3841347394631027 0.8442022755707478 27.905011585175355 -1.8208541759098493 0.0 0.0 -3.975693351829396e-16
0.0 0.0 829.6574285994868 25.782601611725564 12.212700946342586 0.9853213773895096 -5.862219302097867e-33 -1.6896696745274934e-15 -3.975693351829396e-16 -0.017644850515678788 -24.674703152167066 4.076928515365358 1.5186910451943003 20.1975125326457 -1.9825728532807039 0.0 0.0 0.0 -5.862219302097867e-33 -1.6896696745274934e-15 -3.975693351829396e-16 0.0028744433304448724 3.908147586364027 4.51704988444573 -0.0979535905215378 1.1937271040306739e-15 -1.1916880355625892e-15 5.517382872562698e-33 -1.5902773407317584e-15 3.975693351829396e-16 -66.27915868276551 51.965300476800316 91.50888319117652 -87.5112616015129 9.768105521939082e-17 4.4969227895317724e-15 0.0 0.0 2.3854160110976376e-15 5.517382872562698e-33 -1.5902773407317584e-15 3.975693351829396e-16 -8.533412271627114 -9.751281373654779 -5.235450666147297 5.517382872562698e-33 -1.5902773407317584e-15 3.975693351829396e-16 48.16521436995895 40.409269547693356 -78.70643508824672 90.58089833219769 -4.475124267895014e-15 4.520727277110962e-15 6.3611093629270335e-15 0.0 0.0 -5.862219302097867e-33 -1.6896696745274934e-15 -3.975693351829396e-16 -0.022350653518341142 -26.079831321880174 1.321726049373892 0.7249399550888341 27.859781523276492 -1.7263054137498635 0.0 0.0 0.0
0.0 0.0 829.6574285994868 25.724021433971 12.069355412179233 1.0598890893591748 0.0 0.0 3.975693351829396e-16 0.03234717739203572 -24.648577440712515 4.016320291952021 1.4818594168595611 20.57846195335974 -2.057288506401589 0.0 0.0 -3.975693351829396e-16 0.0 0.0 3.975693351829396e-16 -0.004284457176736088 3.6697154544345785 4.491929475434381 0.13491706645166912 3.971009721291747e-16 -3.980371471228202e-16 0.0 0.0 -3.975693351829396e-16 -66.44962490985573 52.19058404683686 91.49592667294998 -87.79812324745748 -1.5696824580188348e-14 2.5510586318785744e-15 0.0 0.0 5.963540027744094e-16 0.0 0.0 -3.975693351829396e-16 -8.66918343657615 -9.519580055294856 -5.288581188684737 0.0 0.0 -3.975693351829396e-16 46.995811642018566 40.31543164734597 -77.09493770665158 92.09924378382419 -1.1201874289967018e-14 2.4546033192573654e-15 -6.361109362927032e-15 0.0 0.0 0.0 0.0 3.975693351829396e-16 0.030629271297233817 -25.862659092035198 1.2470436592240357 0.6162888559944187 27.66550903979018 -1.7859910624525994 -6.896728590703373e-34 -9.939233379573492e-17 -7.951386703658794e-16
